<svg width="166" height="32" viewBox="0 0 166 32" fill="none" xmlns="http://www.w3.org/2000/svg">
<path fill-rule="evenodd" clip-rule="evenodd" d="M26.9639 20.9641L9.12681 30.9226C8.58366 31.1598 8.00061 31.2923 7.40829 31.3132C6.24873 31.261 5.14218 30.8125 4.27348 30.0426C3.75031 29.5714 3.33183 28.9956 3.0451 28.3526C2.75837 27.7095 2.60976 27.0134 2.60889 26.3093V5.69241C2.60889 5.67885 2.60962 5.66515 2.61036 5.65137L2.61036 5.65137L2.61036 5.65137C2.6111 5.63744 2.61185 5.62344 2.61185 5.60944C2.61363 5.48678 2.62015 5.3647 2.63022 5.24618C2.63674 5.17093 2.64681 5.09626 2.65689 5.02218C2.66558 4.95621 2.67565 4.89063 2.68711 4.82544C2.70192 4.74011 2.71792 4.65537 2.73748 4.57182C2.74485 4.53923 2.75324 4.5074 2.76164 4.4755L2.76164 4.4755C2.76608 4.45868 2.77051 4.44184 2.77481 4.42485C2.84731 4.14988 2.94327 3.88164 3.06163 3.62307C3.09778 3.54248 3.13452 3.46307 3.17481 3.38604C3.19314 3.34991 3.21239 3.31564 3.23174 3.28117L3.2394 3.26752C3.65194 2.53423 4.24602 1.91927 4.96463 1.48167C5.68325 1.04407 6.50227 0.798506 7.34311 0.768555C8.27417 0.82926 9.17929 1.10057 9.99022 1.56204L26.9639 11.0388C27.847 11.532 28.5825 12.2519 29.0945 13.1243C29.6065 13.9967 29.8765 14.9899 29.8765 16.0014C29.8765 17.013 29.6065 18.0062 29.0945 18.8786C28.5825 19.7509 27.847 20.4709 26.9639 20.9641ZM11.5078 11.8514H13.2488C13.2488 11.8514 11.0758 17.3702 10.3605 19.2149C10.2679 19.4898 10.0924 19.7292 9.85803 19.9001C9.62367 20.0709 9.34207 20.1649 9.05206 20.169H8.5288L5.26362 11.8514H7.36317L9.43369 17.1308L11.5078 11.8514ZM22.3085 13.3558C22.3092 13.1556 22.2704 12.9573 22.1942 12.7722C22.118 12.5871 22.0059 12.4189 21.8645 12.2773C21.7231 12.1357 21.5551 12.0234 21.3701 11.9469C21.1852 11.8704 20.9869 11.8312 20.7867 11.8316H20.5527V20.1706H22.305L22.3085 13.3558ZM19.383 14.7732C19.2143 15.1745 18.9117 15.5049 18.5269 15.7082C18.9471 15.8234 19.3152 16.0792 19.5696 16.4329C19.8241 16.7866 19.9497 17.2169 19.9254 17.6519C19.9509 18.9586 19.0015 20.1705 16.9138 20.1705H13.6836V11.8611H16.8557C18.5565 11.8511 19.3097 12.7962 19.4525 13.5074C19.5763 13.9247 19.5518 14.372 19.383 14.7732ZM16.8682 13.3971H15.619L15.6184 15.1216H16.8682C17.103 15.1272 17.3304 15.0396 17.5008 14.8781C17.6713 14.7165 17.7708 14.4941 17.7778 14.2594C17.7759 14.1426 17.7508 14.0275 17.7038 13.9206C17.6568 13.8138 17.589 13.7173 17.5043 13.637C17.4195 13.5567 17.3196 13.4941 17.2104 13.453C17.1012 13.4118 16.9848 13.3928 16.8682 13.3971ZM15.6113 18.6333H17.2018V18.6327C17.4637 18.6285 17.7131 18.5205 17.8953 18.3324C18.0775 18.1443 18.1775 17.8916 18.1734 17.6297C18.1692 17.3679 18.0612 17.1184 17.8731 16.9362C17.685 16.754 17.4323 16.654 17.1704 16.6582H15.6113V18.6333Z" fill="#004881"/>
<path d="M13.2489 11.8513H11.5078L9.43375 17.1307L7.36323 11.8513H5.26367L8.52886 20.1689H9.05212C9.34213 20.1649 9.62373 20.0709 9.85808 19.9C10.0924 19.7291 10.268 19.4897 10.3606 19.2149C11.0758 17.3701 13.2489 11.8513 13.2489 11.8513Z" fill="white"/>
<path d="M22.3086 13.3557C22.3093 13.1555 22.2704 12.9572 22.1942 12.7721C22.118 12.5871 22.006 12.4189 21.8646 12.2772C21.7232 12.1356 21.5551 12.0233 21.3702 11.9468C21.1852 11.8703 20.987 11.8312 20.7868 11.8315H20.5527V20.1705H22.305L22.3086 13.3557Z" fill="white"/>
<path d="M18.5269 15.7083C18.9117 15.5049 19.2143 15.1745 19.383 14.7733C19.5518 14.372 19.5763 13.9247 19.4525 13.5074C19.3097 12.7963 18.5565 11.8511 16.8557 11.8612H13.6836V20.1705H16.9138C19.0015 20.1705 19.9509 18.9586 19.9254 17.652C19.9497 17.2169 19.8241 16.7867 19.5696 16.433C19.3151 16.0793 18.9471 15.8235 18.5269 15.7083ZM15.619 13.3972H16.8682C16.9848 13.3928 17.1012 13.4118 17.2104 13.453C17.3196 13.4942 17.4195 13.5568 17.5042 13.6371C17.589 13.7174 17.6568 13.8138 17.7038 13.9206C17.7508 14.0275 17.7759 14.1427 17.7778 14.2594C17.7708 14.4941 17.6713 14.7165 17.5008 14.8781C17.3304 15.0396 17.103 15.1272 16.8682 15.1216H15.6184L15.619 13.3972ZM17.2018 18.6333H15.6113V16.6582H17.1704C17.4322 16.654 17.685 16.7541 17.8731 16.9363C18.0612 17.1185 18.1692 17.3679 18.1734 17.6298C18.1775 17.8916 18.0775 18.1444 17.8953 18.3325C17.7131 18.5205 17.4637 18.6286 17.2018 18.6327V18.6333Z" fill="white"/>
<path d="M1.4957 26.3117V5.68948C1.49799 4.31034 2.00072 2.97889 2.91055 1.94242C3.82037 0.905952 5.07545 0.234911 6.44267 0.0539257C6.19292 0.0189333 5.94108 0.000916886 5.68889 0C4.18063 0.00172525 2.73464 0.601642 1.66814 1.66814C0.601643 2.73464 0.00172525 4.18063 0 5.68889V26.3111C0.00172525 27.8194 0.601643 29.2654 1.66814 30.3319C2.73464 31.3984 4.18063 31.9983 5.68889 32C5.94109 31.9993 6.19294 31.9813 6.44267 31.9461C5.0756 31.7652 3.82062 31.0944 2.91079 30.0582C2.00097 29.0219 1.49815 27.6907 1.4957 26.3117Z" fill="#CA0038"/>
<path d="M44.0953 17.8242C44.1057 18.171 44.0387 18.5159 43.8992 18.8336C43.7597 19.1514 43.5511 19.4341 43.2887 19.6612C42.7347 20.14 42.0206 20.3926 41.2887 20.3687H37.6401V11.6807H41.041C41.7548 11.6592 42.4505 11.9074 42.9895 12.3759C43.2483 12.5944 43.4542 12.8687 43.5917 13.1783C43.7293 13.4879 43.7949 13.8246 43.7835 14.1631C43.794 14.4853 43.7314 14.8056 43.6003 15.1001C43.4693 15.3945 43.2732 15.6554 43.0268 15.8633C43.3637 16.065 43.6405 16.3532 43.8284 16.698C44.0162 17.0429 44.1084 17.4317 44.0953 17.8242ZM39.6271 13.5421V15.0828H41.0422C41.2465 15.0828 41.4425 15.0017 41.5869 14.8572C41.7314 14.7127 41.8126 14.5168 41.8126 14.3124C41.8126 14.1081 41.7314 13.9122 41.5869 13.7677C41.4425 13.6232 41.2465 13.5421 41.0422 13.5421H39.6271ZM41.2899 18.5062C41.5104 18.5062 41.7219 18.4186 41.8778 18.2627C42.0337 18.1068 42.1213 17.8953 42.1213 17.6748C42.1213 17.4543 42.0337 17.2428 41.8778 17.0869C41.7219 16.931 41.5104 16.8434 41.2899 16.8434H39.6295V18.5062H41.2899Z" fill="#004881"/>
<path d="M50.6124 20.3686L50.1786 19.0056H46.9519L46.5176 20.3686H44.3457L47.2998 11.6806H49.8319L52.7854 20.3686H50.6124ZM47.9457 11.0602C47.9457 10.2898 48.1318 10.1416 48.4915 9.98045C48.4915 9.98045 48.6775 9.88149 48.6651 9.89334C48.7149 9.84356 48.7641 9.81926 48.7641 9.7446C48.7641 9.68534 48.677 9.62015 48.578 9.62015C48.469 9.61735 48.3618 9.64799 48.2708 9.70796C48.1798 9.76793 48.1094 9.85434 48.069 9.95556L46.9525 9.54549C47.0958 9.2373 47.3321 8.98176 47.6281 8.81478C47.9241 8.64779 48.265 8.57776 48.6029 8.61452C49.4847 8.61452 50.0429 8.99912 50.0429 9.66934C50.0539 9.86422 50.0067 10.058 49.9073 10.2259C49.8079 10.3939 49.6608 10.5286 49.4847 10.6127C49.3229 10.6874 49.2115 10.7615 49.2476 11.0596L47.9457 11.0602ZM47.5487 17.1413H49.5836L48.5655 13.952L47.5487 17.1413Z" fill="#004881"/>
<path d="M57.6738 20.5422C57.08 20.5526 56.4902 20.4424 55.9402 20.2183C55.3902 19.9942 54.8913 19.6609 54.4738 19.2385C53.6307 18.381 53.1582 17.2266 53.1582 16.024C53.1582 14.8214 53.6307 13.667 54.4738 12.8095C55.3302 11.974 56.4792 11.5063 57.6756 11.5063C58.872 11.5063 60.021 11.974 60.8774 12.8095C61.7208 13.6668 62.1935 14.8213 62.1935 16.024C62.1935 17.2267 61.7208 18.3812 60.8774 19.2385C60.4594 19.6614 59.96 19.9949 59.4094 20.219C58.8587 20.4431 58.2682 20.5531 57.6738 20.5422ZM57.6738 18.6062C58.0072 18.6162 58.339 18.5574 58.6486 18.4335C58.9582 18.3096 59.239 18.1233 59.4735 17.8862C59.9443 17.3806 60.206 16.7154 60.206 16.0246C60.206 15.3338 59.9443 14.6686 59.4735 14.163C59.239 13.9259 58.9582 13.7396 58.6486 13.6157C58.339 13.4919 58.0072 13.4331 57.6738 13.443C57.3387 13.4333 57.0052 13.4921 56.6937 13.6159C56.3822 13.7397 56.0993 13.9259 55.8623 14.163C55.399 14.6723 55.1423 15.3361 55.1423 16.0246C55.1423 16.7131 55.399 17.3769 55.8623 17.8862C56.0993 18.1233 56.3822 18.3095 56.6937 18.4333C57.0052 18.5571 57.3387 18.616 57.6738 18.6062Z" fill="#004881"/>
<path d="M71.126 11.6807H73.1136V20.3687H71.1278V16.918H68.3972V20.3687H66.4114V11.6807H68.3972V15.0057H71.1278L71.126 11.6807Z" fill="#004881"/>
<path d="M74.6003 11.6807H76.5861V20.3687H74.6003V11.6807Z" fill="#004881"/>
<path d="M80.0615 18.4567H83.5364V20.3684H78.0757V11.6804H83.4748V13.5915H80.062V15.0315H83.1649V16.9159H80.062L80.0615 18.4567ZM80.7192 10.4146L80.3098 11.0599H78.6339L79.8623 9.32244H81.5625L82.7909 11.0599H81.1157L80.7192 10.4146ZM82.1711 9.80659C82.1711 9.08718 82.3447 8.95029 82.6801 8.79918C82.6801 8.79918 82.8538 8.70022 82.8413 8.71207C82.8786 8.66229 82.9284 8.65281 82.9284 8.57577C82.9284 8.51651 82.8538 8.46437 82.7548 8.46437C82.653 8.45911 82.5523 8.48637 82.467 8.54219C82.3818 8.59802 82.3166 8.67951 82.2807 8.77488L81.2383 8.39029C81.3749 8.10478 81.596 7.86824 81.8716 7.7128C82.1473 7.55737 82.4641 7.49059 82.7791 7.52155C83.5981 7.52155 84.1195 7.88125 84.1195 8.50229C84.1302 8.6844 84.0863 8.86555 83.9934 9.02254C83.9005 9.17953 83.7628 9.3052 83.5981 9.38348C83.4487 9.45814 83.3498 9.51977 83.374 9.8054L82.1711 9.80659Z" fill="#004881"/>
<path d="M93.3415 11.6807V20.3687H91.3552V15.3168L89.1086 19.0033H88.8846L86.6381 15.3168V20.3687H84.6523V11.6807H86.6381L88.996 15.5408L91.354 11.6807H93.3415Z" fill="#004881"/>
<path d="M100.017 20.3687L97.1875 11.6807H99.3593L101.283 18.0724L103.204 11.6807H105.376L102.549 20.3687H100.017Z" fill="#004881"/>
<path d="M106.122 11.6807H108.108V20.3687H106.122V11.6807Z" fill="#004881"/>
<path d="M111.583 18.457H115.059V20.3687H109.597V11.6807H114.996V13.5924H111.583V15.0324H114.686V16.9186H111.583V18.457Z" fill="#004881"/>
<path d="M122.008 11.6807V13.5924H119.774V20.3687H117.788V13.5918H115.554V11.6807H122.008Z" fill="#004881"/>
<path d="M122.876 11.6807H124.862V20.3687H122.876V11.6807Z" fill="#004881"/>
<path d="M131.192 11.6807H133.178V20.3687H131.689L128.338 15.6522V20.3687H126.352V11.6807H127.841L131.193 16.3971L131.192 11.6807Z" fill="#004881"/>
<path d="M141.12 17.8242C141.13 18.171 141.063 18.5159 140.924 18.8336C140.784 19.1514 140.576 19.4341 140.313 19.6612C139.76 20.1392 139.047 20.3918 138.316 20.3687H134.667V11.6807H138.068C138.782 11.6592 139.477 11.9074 140.016 12.3759C140.275 12.5944 140.481 12.8688 140.618 13.1784C140.756 13.4879 140.822 13.8246 140.81 14.1631C140.821 14.4853 140.758 14.8056 140.627 15.1001C140.496 15.3945 140.3 15.6554 140.054 15.8633C140.39 16.0653 140.666 16.3537 140.854 16.6985C141.041 17.0432 141.133 17.4319 141.12 17.8242ZM136.652 13.5421V15.0828H138.067C138.271 15.0828 138.467 15.0017 138.612 14.8572C138.756 14.7127 138.838 14.5168 138.838 14.3124C138.838 14.1081 138.756 13.9122 138.612 13.7677C138.467 13.6232 138.271 13.5421 138.067 13.5421H136.652ZM138.315 18.5062C138.535 18.5062 138.747 18.4186 138.903 18.2627C139.059 18.1068 139.146 17.8953 139.146 17.6748C139.146 17.4543 139.059 17.2428 138.903 17.0869C138.747 16.931 138.535 16.8434 138.315 16.8434H136.652V18.5062H138.315Z" fill="#004881"/>
<path d="M147.635 20.3687L147.201 19.0057H143.974L143.54 20.3687H141.368L144.322 11.6807H146.854L149.808 20.3687H147.635ZM144.57 17.139H146.605L145.588 13.9491L144.57 17.139Z" fill="#004881"/>
<path d="M155.393 11.6807H157.379V20.3687H155.89L152.539 15.6522V20.3687H150.553V11.6807H152.042L155.393 16.3971V11.6807Z" fill="#004881"/>
<path d="M165.894 20.3687H163.636L160.856 16.3473V20.3687H158.87V11.6807H160.856V15.4537L163.512 11.6807H165.77L162.841 15.913L165.894 20.3687Z" fill="#004881"/>
</svg>
