<svg width="20" height="20" viewBox="0 0 20 20" fill="none" xmlns="http://www.w3.org/2000/svg">
<path d="M10.0007 1.66675C7.70315 1.66675 5.83398 3.53591 5.83398 5.83342V8.33342H5.00065C4.08148 8.33342 3.33398 9.08091 3.33398 10.0001V16.6667C3.33398 17.5859 4.08148 18.3334 5.00065 18.3334H15.0007C15.9198 18.3334 16.6673 17.5859 16.6673 16.6667V10.0001C16.6673 9.08091 15.9198 8.33342 15.0007 8.33342H14.1673V5.83342C14.1673 3.53591 12.2982 1.66675 10.0007 1.66675ZM15.0007 10.0001L15.0023 16.6667H5.00065V10.0001H15.0007ZM7.50065 8.33342V5.83342C7.50065 4.45508 8.62232 3.33341 10.0007 3.33341C11.379 3.33341 12.5007 4.45508 12.5007 5.83342V8.33342H7.50065Z" fill="#2E3A5B"/>
</svg>
