<svg width="20" height="20" viewBox="0 0 20 20" fill="none" xmlns="http://www.w3.org/2000/svg">
<path d="M1.66602 10.0001L5.83268 13.3334V10.8334H13.3327V9.16675H5.83268V6.66675L1.66602 10.0001Z" fill="#DD005D"/>
<path d="M10.8346 2.49905C9.84919 2.49632 8.87305 2.68914 7.96271 3.06636C7.05236 3.44357 6.22592 3.99766 5.53125 4.69655L6.70958 5.87489C7.81125 4.77322 9.27625 4.16572 10.8346 4.16572C12.3929 4.16572 13.8579 4.77322 14.9596 5.87489C16.0613 6.97655 16.6688 8.44155 16.6688 9.99989C16.6688 11.5582 16.0613 13.0232 14.9596 14.1249C13.8579 15.2266 12.3929 15.8341 10.8346 15.8341C9.27625 15.8341 7.81125 15.2266 6.70958 14.1249L5.53125 15.3032C6.94708 16.7199 8.83042 17.5007 10.8346 17.5007C12.8388 17.5007 14.7221 16.7199 16.1379 15.3032C17.5546 13.8874 18.3354 12.0041 18.3354 9.99989C18.3354 7.99572 17.5546 6.11239 16.1379 4.69655C15.4432 3.99766 14.6168 3.44357 13.7065 3.06636C12.7961 2.68914 11.82 2.49632 10.8346 2.49905Z" fill="#DD005D"/>
</svg>
