<svg width="20" height="20" viewBox="0 0 20 20" fill="none" xmlns="http://www.w3.org/2000/svg">
<path d="M9.99935 1.66675C7.79794 1.69482 5.6946 2.58181 4.13784 4.13857C2.58108 5.69533 1.69409 7.79867 1.66602 10.0001C1.67631 11.2825 1.98245 12.5453 2.56061 13.69C3.13877 14.8348 3.97334 15.8306 4.99935 16.6001V16.6667H5.08268C6.49367 17.748 8.22172 18.334 9.99935 18.334C11.777 18.334 13.505 17.748 14.916 16.6667H14.9993V16.6001C16.0254 15.8306 16.8599 14.8348 17.4381 13.69C18.0163 12.5453 18.3224 11.2825 18.3327 10.0001C18.3046 7.79867 17.4176 5.69533 15.8609 4.13857C14.3041 2.58181 12.2008 1.69482 9.99935 1.66675ZM6.72435 15.7751C6.846 15.218 7.15447 14.7192 7.59859 14.3614C8.0427 14.0037 8.59576 13.8086 9.16602 13.8084H10.8327C11.4029 13.8086 11.956 14.0037 12.4001 14.3614C12.8442 14.7192 13.1527 15.218 13.2744 15.7751C12.2817 16.3591 11.151 16.667 9.99935 16.667C8.84768 16.667 7.71696 16.3591 6.72435 15.7751ZM14.6743 14.7001C14.3574 13.9425 13.8236 13.2956 13.1401 12.8404C12.4566 12.3852 11.6539 12.1422 10.8327 12.1417H9.16602C8.34483 12.1422 7.54208 12.3852 6.85858 12.8404C6.17508 13.2956 5.64133 13.9425 5.32435 14.7001C4.6999 14.0859 4.2026 13.3547 3.86086 12.5483C3.51912 11.7418 3.33964 10.8759 3.33268 10.0001C3.3543 8.23869 4.06362 6.55552 5.3092 5.30994C6.55479 4.06435 8.23795 3.35503 9.99935 3.33341C11.7607 3.35503 13.4439 4.06435 14.6895 5.30994C15.9351 6.55552 16.6444 8.23869 16.666 10.0001C16.6591 10.8759 16.4796 11.7418 16.1378 12.5483C15.7961 13.3547 15.2988 14.0859 14.6743 14.7001Z" fill="#2E3A5B"/>
<path d="M10.0002 4.99991C9.55969 4.98964 9.12164 5.06885 8.71258 5.23273C8.30352 5.39662 7.93196 5.64177 7.62036 5.95337C7.30876 6.26496 7.06361 6.63653 6.89972 7.04559C6.73584 7.45464 6.65664 7.89269 6.6669 8.33324C6.65664 8.77379 6.73584 9.21184 6.89972 9.62089C7.06361 10.03 7.30876 10.4015 7.62036 10.7131C7.93196 11.0247 8.30352 11.2699 8.71258 11.4337C9.12164 11.5976 9.55969 11.6768 10.0002 11.6666C10.4408 11.6768 10.8788 11.5976 11.2879 11.4337C11.6969 11.2699 12.0685 11.0247 12.3801 10.7131C12.6917 10.4015 12.9369 10.03 13.1007 9.62089C13.2646 9.21184 13.3438 8.77379 13.3336 8.33324C13.3438 7.89269 13.2646 7.45464 13.1007 7.04559C12.9369 6.63653 12.6917 6.26496 12.3801 5.95337C12.0685 5.64177 11.6969 5.39662 11.2879 5.23273C10.8788 5.06885 10.4408 4.98964 10.0002 4.99991ZM10.0002 9.99991C9.77852 10.0106 9.55703 9.97485 9.34996 9.89489C9.1429 9.81492 8.95485 9.69253 8.7979 9.53558C8.64094 9.37862 8.51855 9.19057 8.43859 8.98351C8.35862 8.77645 8.32285 8.55495 8.33357 8.33324C8.32285 8.11153 8.35862 7.89003 8.43859 7.68297C8.51855 7.47591 8.64094 7.28786 8.7979 7.1309C8.95485 6.97395 9.1429 6.85156 9.34996 6.77159C9.55703 6.69163 9.77852 6.65586 10.0002 6.66657C10.2219 6.65586 10.4434 6.69163 10.6505 6.77159C10.8576 6.85156 11.0456 6.97395 11.2026 7.1309C11.3595 7.28786 11.4819 7.47591 11.5619 7.68297C11.6418 7.89003 11.6776 8.11153 11.6669 8.33324C11.6776 8.55495 11.6418 8.77645 11.5619 8.98351C11.4819 9.19057 11.3595 9.37862 11.2026 9.53558C11.0456 9.69253 10.8576 9.81492 10.6505 9.89489C10.4434 9.97485 10.2219 10.0106 10.0002 9.99991Z" fill="#2E3A5B"/>
</svg>
